<?xml version="1.0" standalone="no"?>
<!DOCTYPE svg PUBLIC "-//W3C//DTD SVG 20010904//EN"
 "http://www.w3.org/TR/2001/REC-SVG-20010904/DTD/svg10.dtd">
<svg version="1.0" xmlns="http://www.w3.org/2000/svg"
 width="512.000000pt" height="512.000000pt" viewBox="0 0 512.000000 512.000000"
 preserveAspectRatio="xMidYMid meet">

<g transform="translate(0.000000,512.000000) scale(0.100000,-0.100000)"
fill="#000000" stroke="none">
<path d="M1230 4347 c-163 -55 -283 -182 -325 -342 -13 -52 -15 -232 -15
-1445 0 -1515 -3 -1441 58 -1554 34 -65 133 -164 198 -198 115 -62 275 -76
394 -35 70 24 2422 1345 2502 1405 116 87 188 234 188 382 0 148 -76 302 -190
385 -87 63 -2435 1380 -2500 1402 -48 17 -88 22 -155 22 -67 0 -107 -5 -155
-22z"/>
</g>
</svg>
