<?xml version="1.0" standalone="no"?>
<!DOCTYPE svg PUBLIC "-//W3C//DTD SVG 20010904//EN"
 "http://www.w3.org/TR/2001/REC-SVG-20010904/DTD/svg10.dtd">
<svg version="1.0" xmlns="http://www.w3.org/2000/svg"
 width="512.000000pt" height="512.000000pt" viewBox="0 0 512.000000 512.000000"
 preserveAspectRatio="xMidYMid meet">

<g transform="translate(0.000000,512.000000) scale(0.100000,-0.100000)"
fill="#000000" stroke="none">
<path d="M2315 5109 c-798 -81 -1501 -518 -1927 -1196 -487 -774 -516 -1777
-75 -2578 198 -360 493 -682 833 -908 326 -216 686 -350 1099 -409 117 -16
512 -17 630 0 631 88 1152 360 1577 821 349 378 572 862 650 1406 17 118 17
512 0 630 -59 416 -191 769 -410 1099 -92 140 -185 254 -315 385 -399 404
-893 653 -1462 737 -122 18 -477 26 -600 13z m532 -264 c265 -35 497 -105 728
-220 253 -125 445 -265 641 -467 419 -434 644 -991 644 -1598 0 -601 -221
-1154 -632 -1586 -196 -205 -388 -346 -645 -475 -468 -235 -1017 -301 -1536
-184 -342 77 -689 249 -958 474 -452 378 -736 896 -814 1484 -19 148 -19 417
-1 567 110 882 717 1625 1556 1903 152 51 287 82 435 102 142 18 439 18 582 0z"/>
<path d="M1912 3657 c-46 -18 -100 -73 -112 -116 -13 -49 -14 -1913 0 -1962
21 -77 119 -138 200 -124 45 8 1483 964 1515 1008 29 40 29 154 0 194 -12 15
-349 247 -750 515 -788 527 -770 516 -853 485z m752 -722 c305 -203 555 -372
555 -375 0 -4 -1011 -681 -1140 -763 l-29 -19 0 782 0 782 29 -19 c16 -10 279
-184 585 -388z"/>
</g>
</svg>
