<?xml version="1.0" standalone="no"?>
<!DOCTYPE svg PUBLIC "-//W3C//DTD SVG 20010904//EN"
 "http://www.w3.org/TR/2001/REC-SVG-20010904/DTD/svg10.dtd">
<svg version="1.0" xmlns="http://www.w3.org/2000/svg"
 width="512.000000pt" height="512.000000pt" viewBox="0 0 512.000000 512.000000"
 preserveAspectRatio="xMidYMid meet">

<g transform="translate(0.000000,512.000000) scale(0.100000,-0.100000)"
fill="#000000" stroke="none">
<path d="M2370 4704 c-574 -54 -1123 -347 -1479 -789 -694 -861 -628 -2099
152 -2876 325 -323 720 -524 1192 -606 139 -23 498 -24 644 0 622 102 1143
438 1483 957 357 545 443 1229 234 1856 -253 757 -917 1315 -1712 1440 -96 15
-424 26 -514 18z m465 -220 c765 -103 1412 -679 1605 -1428 44 -173 61 -311
61 -496 0 -563 -226 -1068 -647 -1449 -281 -253 -634 -418 -1019 -476 -146
-22 -405 -22 -550 0 -767 115 -1388 658 -1596 1394 -257 912 182 1882 1033
2286 350 166 721 222 1113 169z"/>
<path d="M1909 3516 c-23 -7 -40 -22 -52 -46 -16 -33 -17 -93 -15 -923 l3
-889 34 -30 c29 -26 40 -30 75 -25 47 6 1664 852 1706 893 18 17 25 35 25 64
0 29 -7 46 -25 64 -25 24 -1655 887 -1696 898 -11 3 -36 0 -55 -6z m894 -661
c301 -158 547 -291 547 -295 0 -4 -246 -137 -547 -295 -302 -159 -594 -313
-650 -343 l-103 -54 0 692 0 692 103 -54 c56 -30 348 -184 650 -343z"/>
</g>
</svg>
