<?xml version="1.0" standalone="no"?>
<!DOCTYPE svg PUBLIC "-//W3C//DTD SVG 20010904//EN"
 "http://www.w3.org/TR/2001/REC-SVG-20010904/DTD/svg10.dtd">
<svg version="1.0" xmlns="http://www.w3.org/2000/svg"
 width="512.000000pt" height="512.000000pt" viewBox="0 0 512.000000 512.000000"
 preserveAspectRatio="xMidYMid meet">

<g transform="translate(0.000000,512.000000) scale(0.100000,-0.100000)"
fill="#000000" stroke="none">
<path d="M1880 5104 c-964 -147 -1723 -910 -1864 -1875 -21 -140 -21 -495 -1
-637 55 -385 218 -762 465 -1072 129 -161 347 -359 520 -472 654 -424 1488
-475 2185 -133 147 72 333 192 443 285 l74 63 626 -626 c422 -421 636 -628
655 -632 82 -21 156 57 132 137 -4 12 -288 305 -632 649 l-625 626 73 89 c638
779 666 1900 67 2719 -88 120 -281 322 -398 415 -311 247 -687 410 -1072 465
-136 19 -517 18 -648 -1z m585 -215 c295 -36 616 -155 859 -317 758 -508 1079
-1453 785 -2315 -70 -208 -171 -396 -307 -577 -78 -103 -269 -292 -375 -372
-738 -550 -1723 -540 -2452 26 -77 60 -241 222 -310 306 -226 276 -379 629
-429 989 -21 145 -21 407 0 552 61 443 271 852 594 1163 442 423 1029 619
1635 545z"/>
<path d="M1311 3846 c-45 -25 -64 -91 -40 -139 6 -12 187 -199 402 -414 l392
-393 -403 -403 -402 -403 0 -43 c0 -34 6 -49 29 -72 24 -24 38 -29 77 -29 l48
0 401 400 400 400 378 -378 c208 -207 392 -387 410 -399 62 -42 135 -24 162
41 28 66 27 66 -396 491 l-399 400 400 400 400 401 0 48 c0 39 -5 53 -29 77
-23 23 -38 29 -72 29 l-43 0 -403 -402 -403 -403 -393 392 c-215 215 -402 396
-414 402 -29 15 -72 13 -102 -3z"/>
</g>
</svg>
