<?xml version="1.0" standalone="no"?>
<!DOCTYPE svg PUBLIC "-//W3C//DTD SVG 20010904//EN"
 "http://www.w3.org/TR/2001/REC-SVG-20010904/DTD/svg10.dtd">
<svg version="1.0" xmlns="http://www.w3.org/2000/svg"
 width="512.000000pt" height="512.000000pt" viewBox="0 0 512.000000 512.000000"
 preserveAspectRatio="xMidYMid meet">

<g transform="translate(0.000000,512.000000) scale(0.100000,-0.100000)"
fill="#000000" stroke="none">
<path d="M1255 5106 c-84 -21 -147 -57 -210 -121 -65 -65 -105 -137 -124 -223
-16 -74 -16 -3718 0 -3794 17 -80 74 -182 133 -234 99 -90 200 -124 361 -124
l95 0 2 -304 3 -304 298 146 297 145 298 -145 297 -145 3 304 2 303 750 0 750
0 0 2255 0 2255 -1452 -1 c-1127 -1 -1464 -4 -1503 -13z m2655 -1941 l0 -1655
-1327 -3 c-731 -1 -1338 -6 -1350 -11 l-23 -8 0 1608 c1 1530 2 1611 19 1643
10 18 35 44 57 57 l39 24 1293 0 1292 0 0 -1655z m-2400 -2105 l0 -150 -91 0
c-108 0 -154 20 -188 80 -40 71 -17 153 55 196 34 21 52 24 132 24 l92 0 0
-150z m900 -215 l0 -365 -140 70 c-77 38 -148 70 -159 70 -10 0 -82 -31 -160
-70 l-141 -70 0 365 0 365 300 0 300 0 0 -365z m1500 215 l0 -150 -600 0 -600
0 0 150 0 150 600 0 600 0 0 -150z"/>
<path d="M2400 4199 c-234 -36 -485 -177 -638 -359 -300 -357 -333 -860 -82
-1248 161 -249 421 -419 715 -467 332 -54 671 56 908 296 409 415 407 1072 -6
1483 -136 136 -297 227 -487 275 -99 26 -307 36 -410 20z m307 -305 c150 -31
275 -99 382 -207 98 -100 162 -209 198 -341 21 -77 24 -278 4 -356 -69 -275
-287 -493 -561 -561 -71 -18 -269 -18 -340 0 -284 70 -505 299 -564 583 -107
519 362 989 881 882z"/>
<path d="M2653 3318 l-243 -243 -93 93 c-51 50 -97 92 -102 92 -13 0 -205
-192 -205 -205 0 -6 90 -100 200 -210 l200 -200 350 350 c193 192 350 355 350
360 0 13 -192 205 -205 205 -6 0 -119 -109 -252 -242z"/>
</g>
</svg>
