<?xml version="1.0" standalone="no"?>
<!DOCTYPE svg PUBLIC "-//W3C//DTD SVG 20010904//EN"
 "http://www.w3.org/TR/2001/REC-SVG-20010904/DTD/svg10.dtd">
<svg version="1.0" xmlns="http://www.w3.org/2000/svg"
 width="512.000000pt" height="512.000000pt" viewBox="0 0 512.000000 512.000000"
 preserveAspectRatio="xMidYMid meet">

<g transform="translate(0.000000,512.000000) scale(0.100000,-0.100000)"
fill="#000000" stroke="none">
<path d="M369 5102 c-163 -43 -292 -171 -343 -341 -14 -50 -16 -255 -16 -2181
0 -2345 -5 -2177 63 -2304 41 -78 135 -172 213 -213 127 -67 22 -64 1827 -60
1784 3 1666 0 1877 61 550 160 967 614 1092 1190 19 86 22 132 22 306 0 176
-3 220 -23 310 -68 315 -203 564 -430 791 -173 172 -361 293 -576 370 l-65 24
0 1032 0 1033 -1787 -1 c-1657 0 -1793 -1 -1854 -17z m241 -2166 l0 -1884 -92
-7 c-83 -7 -138 -18 -190 -40 -17 -7 -18 84 -18 1834 0 1788 1 1843 19 1879
38 74 91 101 204 102 l77 0 0 -1884z m3100 1032 l0 -853 -178 -1 c-193 0 -270
-12 -447 -66 -358 -109 -681 -366 -880 -700 -143 -241 -209 -487 -209 -788 0
-185 20 -326 63 -453 l20 -57 -585 0 -584 0 0 1885 0 1885 1400 0 1400 0 0
-852z m46 -1163 c132 -23 240 -59 361 -120 624 -314 874 -1073 557 -1693 -173
-341 -481 -579 -854 -663 -112 -25 -403 -27 -518 -3 -495 101 -884 491 -987
989 -92 447 85 939 440 1221 182 145 399 242 611 273 98 14 295 12 390 -4z
m-1477 -2145 c65 -93 198 -235 286 -308 l50 -42 -1068 0 c-943 0 -1072 2
-1105 16 -191 79 -168 366 33 413 23 5 402 9 890 10 l850 1 64 -90z"/>
<path d="M1590 4250 l0 -150 735 0 735 0 0 150 0 150 -735 0 -735 0 0 -150z"/>
<path d="M1590 3610 l0 -150 735 0 735 0 0 150 0 150 -735 0 -735 0 0 -150z"/>
<path d="M3395 2168 l-157 -203 -236 -84 c-130 -46 -239 -85 -241 -87 -1 -1
62 -97 141 -213 l145 -211 7 -252 c3 -138 8 -253 9 -255 2 -1 113 29 246 69
l242 71 242 -70 c133 -39 244 -69 246 -67 2 2 7 116 12 254 l7 251 90 132 c49
73 114 168 143 211 30 43 50 81 44 83 -5 2 -113 41 -240 86 l-230 83 -157 202
-156 202 -157 -202z m354 -479 c36 -12 80 -28 98 -35 l32 -14 -60 -87 -59 -87
0 -97 c0 -54 -4 -100 -9 -103 -4 -3 -50 7 -101 21 l-94 27 -85 -23 c-47 -13
-93 -25 -102 -28 -14 -4 -17 11 -23 103 l-7 107 -54 79 c-55 79 -63 98 -46 98
6 0 49 14 96 31 85 31 86 32 151 115 l66 84 65 -84 c62 -81 68 -86 132 -107z"/>
</g>
</svg>
