<?xml version="1.0" standalone="no"?>
<!DOCTYPE svg PUBLIC "-//W3C//DTD SVG 20010904//EN"
 "http://www.w3.org/TR/2001/REC-SVG-20010904/DTD/svg10.dtd">
<svg version="1.0" xmlns="http://www.w3.org/2000/svg"
 width="512.000000pt" height="512.000000pt" viewBox="0 0 512.000000 512.000000"
 preserveAspectRatio="xMidYMid meet">

<g transform="translate(0.000000,512.000000) scale(0.100000,-0.100000)"
fill="#000000" stroke="none">
<path d="M0 2560 l0 -2010 2013 3 c1894 3 2016 4 2087 21 262 62 470 175 645
351 389 388 484 978 237 1470 -143 286 -420 529 -717 628 l-70 24 -3 756 -2
757 -793 0 c-748 0 -796 -1 -872 -19 -145 -35 -271 -106 -373 -209 l-58 -60
-47 54 c-59 66 -192 155 -283 190 -142 53 -154 54 -990 54 l-774 0 0 -2010z
m1593 1695 c119 -31 236 -115 291 -209 59 -101 56 -34 56 -1411 l0 -1261 -77
37 c-141 68 -153 69 -898 69 l-665 0 0 1395 0 1395 618 0 c515 0 627 -2 675
-15z m2287 -580 l0 -585 -82 0 c-86 0 -227 -21 -288 -42 -25 -9 -162 -14 -460
-18 l-425 -5 -3 -147 -3 -148 161 0 c88 0 160 -4 160 -8 0 -5 -12 -19 -26 -33
-41 -38 -141 -176 -184 -254 -56 -102 -105 -235 -131 -356 -37 -173 -29 -464
17 -582 4 -11 -12 -16 -67 -21 -81 -7 -201 -44 -265 -82 l-44 -26 0 1240 c0
795 4 1259 10 1293 30 158 166 301 330 345 33 9 210 13 673 13 l627 1 0 -585z
m204 -910 c530 -142 837 -660 702 -1188 -46 -178 -136 -328 -279 -463 -123
-116 -256 -189 -427 -236 -120 -32 -335 -32 -464 0 -521 130 -837 647 -716
1170 79 336 340 609 677 707 149 44 366 48 507 10z m-2362 -1617 c31 -14 77
-45 102 -68 47 -43 99 -136 111 -197 l7 -33 -821 0 -821 0 0 165 0 166 683 -3
682 -3 57 -27z m1039 10 c25 -49 127 -176 192 -240 l68 -68 -387 0 -387 0 7
41 c14 90 93 197 178 240 72 37 119 48 220 48 91 1 98 0 109 -21z"/>
<path d="M650 3480 l0 -150 475 0 476 0 -3 148 -3 147 -472 3 -473 2 0 -150z"/>
<path d="M650 2880 l0 -150 475 0 476 0 -3 148 -3 147 -472 3 -473 2 0 -150z"/>
<path d="M650 2280 l0 -150 475 0 476 0 -3 148 -3 147 -472 3 -473 2 0 -150z"/>
<path d="M2627 3623 c-4 -3 -7 -71 -7 -150 l0 -143 480 0 481 0 -3 148 -3 147
-471 3 c-259 1 -474 -1 -477 -5z"/>
<path d="M3390 2275 l-105 -105 175 -175 175 -175 -173 -173 -172 -172 105
-105 105 -105 173 173 172 172 170 -170 c93 -93 174 -170 180 -170 13 0 205
192 205 205 0 6 -77 87 -170 180 l-170 170 172 172 173 173 -105 105 -105 105
-172 -172 -173 -173 -173 173 c-95 94 -174 172 -177 172 -3 0 -52 -47 -110
-105z"/>
</g>
</svg>
